{"title":"Quirke S01E03 Xvid RB58.avi","uid":9690679,"size":530718224,"categoryP":"video","categoryS":"tv_shows","magnet":"?xt=urn:btih:61603fccd5474d3404fa503d690b3fd3c867b189&amp;dn=Quirke+S01E03+Xvid+RB58.avi&amp;tr=udp%3A%2F%2Ftracker.openbittorrent.com%3A80&amp;tr=udp%3A%2F%2Fopen.demonii.com%3A1337&amp;tr=udp%3A%2F%2Ftracker.coppersurfer.tk%3A6969&amp;tr=udp%3A%2F%2Fexodus.desync.com%3A6969","seeders":2,"leechers":1,"uploader":"RedBaron58","files":1,"time":1393856214,"description":"Quirke Series 1 Episode 3 Xvid Elegy for April\n\nJoint BBC and RTE production Released on RTE One 2nd March 2014 \n &lt;a href=&quot;\nhttp://www.imdb.com/title/tt2357908/&quot; rel=&quot;nofollow&quot; target=&quot;_NEW&quot;&gt;\nhttp://www.imdb.com/title/tt2357908/&lt;/a&gt;\n\nPlease be patient My upload speed is limited, but I am online most the time and during the night.\nThank you for your kind comments and thumbs ups on my other torrents, your feedback is welcome.\n\n\nAbout the Episode:\nThe pathologist is asked to help search for Phoebe's missing friend April, who hasn't been seen \nin more than a week. He begins to fear she has come to harm when he discovers blood in her flat, \nbut when he tells her well-connected family the response is not what he expects. \nDetective drama, starring Gabriel Byrne\n\n\nI hope you enjoy.\n\n\nTechnical:\n\nGeneral\nComplete name                            : E:Quirke S01E03 Xvid RB58.avi\nFormat                                   : AVI\nFormat/Info                              : Audio Video Interleave\nFile size                                : 506 MiB\nDuration                                 : 1h 28mn\nOverall bit rate                         : 796 Kbps\n\nVideo\nID                                       : 0\nFormat                                   : MPEG-4 Visual\nFormat profile                           : Advanced Simple@L4\nFormat settings, BVOP                    : 2\nFormat settings, QPel                    : No\nFormat settings, GMC                     : No warppoints\nFormat settings, Matrix                  : Default (H.263)\nCodec ID                                 : DIVX\nCodec ID/Info                            : Project Mayo\nCodec ID/Hint                            : DivX 4\nDuration                                 : 1h 28mn\nBit rate                                 : 650 Kbps\nWidth                                    : 832 pixels\nHeight                                   : 468 pixels\nDisplay aspect ratio                     : 16:9\nFrame rate                               : 50.000 fps\nColor space                              : YUV\nChroma subsampling                       : 4:2:0\nBit depth                                : 8 bits\nScan type                                : Progressive\nCompression mode                         : Lossy\nBits/(Pixel*Frame)                       : 0.033\nStream size                              : 413 MiB (82%)\nWriting library                          : XviD 64\n\nAudio\nID                                       : 1\nFormat                                   : MPEG Audio\nFormat version                           : Version 1\nFormat profile                           : Layer 3\nCodec ID                                 : 55\nCodec ID/Hint                            : MP3\nDuration                                 : 1h 28mn\nBit rate mode                            : Constant\nBit rate                                 : 128 Kbps\nChannel(s)                               : 2 channels\nSampling rate                            : 48.0 KHz\nCompression mode                         : Lossy\nStream size                              : 81.4 MiB (16%)\nAlignment                                : Aligned on interleaves\nInterleave, duration                     : 24 ms (1.20 video frame)","torrent":{"xt":"urn:btih:61603fccd5474d3404fa503d690b3fd3c867b189","amp;dn":"Quirke+S01E03+Xvid+RB58.avi","amp;tr":["udp%3A%2F%2Ftracker.openbittorrent.com%3A80","udp%3A%2F%2Fopen.demonii.com%3A1337","udp%3A%2F%2Ftracker.coppersurfer.tk%3A6969","udp%3A%2F%2Fexodus.desync.com%3A6969"],"infoHash":"61603fccd5474d3404fa503d690b3fd3c867b189","infoHashBuffer":{"type":"Buffer","data":[97,96,63,204,213,71,77,52,4,250,80,61,105,11,63,211,200,103,177,137]},"announce":[],"urlList":[]}}